<svg enable-background="new 0 0 128 128" viewBox="0 0 128 128" xmlns="http://www.w3.org/2000/svg"><path d="m86 81h12v46h-12z" fill="#ffedce"/><path d="m94 113h-4v-4c0-1.1.9-2 2-2s2 .9 2 2z" fill="#8e7f8b"/><path d="m34 57h60v24h-60z" fill="#ffe9cf"/><path d="m50 82s0-7.6 0-11c0-4.5 4.1-6 4.1-6s3.9 1.5 3.9 6v11" fill="#8e7f8b"/><path d="m38 82s0-7.6 0-11c0-4.5 4.1-6 4.1-6s3.9 1.5 3.9 6v11" fill="#8e7f8b"/><path d="m42.1 65s-4.1 1.5-4.1 6v4c0-4.5 4.1-6 4.1-6s3.9 1.5 3.9 6c0-1.5 0-2.9 0-4 0-4.5-3.9-6-3.9-6z" fill="#726571"/><path d="m54.1 65s-4.1 1.5-4.1 6v4c0-4.5 4.1-6 4.1-6s3.9 1.5 3.9 6c0-1.5 0-2.9 0-4 0-4.5-3.9-6-3.9-6z" fill="#726571"/><path d="m98 81h12v46h-12z" fill="#ffe9cf"/><path d="m18 81h12v46h-12z" fill="#ffe9cf"/><path d="m106 81h4v46h-4z" fill="#fff"/><path d="m26 81h4v46h-4z" fill="#fff"/><path d="m42 81v46h38l-32-.1v-20.7c0-6.4 3.7-12.3 9.8-15.7l6.2-3.5 6.1 3.4c6.1 3.4 9.9 9.4 9.9 15.7v20.9h6v-46z" fill="#ffe9cf"/><path d="m100 24h8v9h-8z" fill="#ffe9cf"/><path d="m20 24h8v9h-8z" fill="#ffe9cf"/><path d="m98 18h12v6h-12z" fill="#ffe9cf" transform="matrix(-1 0 0 -1 207.9617 42.0313)"/><path d="m18 18h12v6h-12z" fill="#ffedce" transform="matrix(-1 0 0 -1 47.9617 42.0313)"/><path d="m20 17.6v-7.3c0-1.8.9-3.5 2.4-4.5l1.6-1 1.5 1c1.5 1 2.5 2.7 2.5 4.5v7.3" fill="#ffe9cf"/><path d="m100 17.6v-7.3c0-1.8.9-3.5 2.4-4.5l1.6-1 1.5 1c1.5 1 2.5 2.7 2.5 4.5v7.3" fill="#ffe9cf"/><path d="m20 24h8v4h-8z" fill="#fdd2af"/><path d="m100 24h8v4h-8z" fill="#fdd2af"/><path d="m100 41h8v16h-8z" fill="#ffe9cf"/><path d="m94 57h20v24h-20z" fill="#ffedce"/><path d="m94 57h4v24h-4z" fill="#fdd2af"/><path d="m30 81h12v46h-12z" fill="#ffe9cf"/><circle cx="64" cy="69" fill="#ffd79e" r="2"/><path d="m30 81h68v4h-68z" fill="#fdd2af"/><path d="m18 81h12v4h-12z" fill="#fdd2af"/><path d="m94 81h4v46h-4z" fill="#fdd2af"/><path d="m98 81h4v46h-4z" fill="#fdd2af"/><path d="m30 81h4v46h-4z" fill="#fdd2af"/><path d="m18 81h4v46h-4z" fill="#fdd2af"/><circle cx="48" cy="89" fill="#ffd79e" r="2"/><circle cx="80" cy="89" fill="#ffd79e" r="2"/><path d="m14 57h20v24h-20z" fill="#ffe9cf"/><path d="m98 81h12v4h-12z" fill="#fdd2af"/><path d="m28 48.9h72v8.1h-72z" fill="#ffe9cf"/><path d="m28 48.9h4v8.1h-4z" fill="#fdd2af"/><path d="m96 48.9h4v8.1h-4z" fill="#fdd2af"/><path d="m34 57h4v24h-4z" fill="#fdd2af"/><path d="m14 57h4v24h-4z" fill="#fdd2af"/><path d="m70 82s0-7.6 0-11c0-4.5 4.1-6 4.1-6s3.9 1.5 3.9 6v11" fill="#8e7f8b"/><path d="m82 82s0-7.6 0-11c0-4.5 4.1-6 4.1-6s3.9 1.5 3.9 6v11" fill="#8e7f8b"/><path d="m38 93h-4v-4c0-1.1.9-2 2-2s2 .9 2 2z" fill="#8e7f8b"/><path d="m36 87c-1.1 0-2 .9-2 2v3c0-1.1.9-2 2-2s2 .9 2 2v-3c0-1.1-.9-2-2-2z" fill="#726571"/><path d="m38 103h-4v-4c0-1.1.9-2 2-2s2 .9 2 2z" fill="#8e7f8b"/><path d="m36 97c-1.1 0-2 .9-2 2v3c0-1.1.9-2 2-2s2 .9 2 2v-3c0-1.1-.9-2-2-2z" fill="#726571"/><g fill="#8e7f8b"><path d="m38 113h-4v-4c0-1.1.9-2 2-2s2 .9 2 2z"/><path d="m38 123h-4v-4c0-1.1.9-2 2-2s2 .9 2 2z"/><path d="m94 93h-4v-4c0-1.1.9-2 2-2s2 .9 2 2z"/><path d="m94 103h-4v-4c0-1.1.9-2 2-2s2 .9 2 2z"/><path d="m94 123h-4v-4c0-1.1.9-2 2-2s2 .9 2 2z"/><path d="m30 77h-4v-4c0-1.1.9-2 2-2s2 .9 2 2z"/><path d="m30 67h-4v-4c0-1.1.9-2 2-2s2 .9 2 2z"/><path d="m102 77h-4v-4c0-1.1.9-2 2-2s2 .9 2 2z"/><path d="m102 67h-4v-4c0-1.1.9-2 2-2s2 .9 2 2z"/><path d="m110 77h-4v-4c0-1.1.9-2 2-2s2 .9 2 2z"/><path d="m110 67h-4v-4c0-1.1.9-2 2-2s2 .9 2 2z"/></g><path d="m38 57h-4v-2c0-1.1.9-2 2-2s2 .9 2 2z" fill="#e3f4fd"/><path d="m46 57h-4v-2c0-1.1.9-2 2-2s2 .9 2 2z" fill="#e3f4fd"/><path d="m54 57h-4v-2c0-1.1.9-2 2-2s2 .9 2 2z" fill="#e3f4fd"/><path d="m62 57h-4v-2c0-1.1.9-2 2-2s2 .9 2 2z" fill="#e3f4fd"/><path d="m70 57h-4v-2c0-1.1.9-2 2-2s2 .9 2 2z" fill="#e3f4fd"/><path d="m78 57h-4v-2c0-1.1.9-2 2-2s2 .9 2 2z" fill="#e3f4fd"/><path d="m86 57h-4v-2c0-1.1.9-2 2-2s2 .9 2 2z" fill="#e3f4fd"/><path d="m94 57h-4v-2c0-1.1.9-2 2-2s2 .9 2 2z" fill="#e3f4fd"/><path d="m22 77h-4v-4c0-1.1.9-2 2-2s2 .9 2 2z" fill="#8e7f8b"/><path d="m22 67h-4v-4c0-1.1.9-2 2-2s2 .9 2 2z" fill="#8e7f8b"/><path d="m28 44.9h72v4h-72z" fill="#ffe9cf"/><path d="m20 41h8v16h-8z" fill="#ffe9cf"/><path d="m19 17.9h3v6.1h-3z" fill="#fdd2af"/><path d="m99 17.9h3v6.1h-3z" fill="#fdd2af"/><path d="m16 33h16v8h-16z" fill="#ffe9cf" transform="matrix(-1 0 0 -1 47.9617 74.0313)"/><path d="m20 41h8v4h-8z" fill="#fdd2af"/><path d="m100 41h8v4h-8z" fill="#fdd2af"/><path d="m96 33h16v8h-16z" fill="#ffe9cf" transform="matrix(-1 0 0 -1 207.9617 74.0313)"/><g fill="#fff"><path d="m105 24h3v9h-3z"/><path d="m25 24h3v9h-3z"/><path d="m105 41h3v16h-3z"/><path d="m90 57h4v24h-4z"/><path d="m110 57h4v24h-4z"/><path d="m34 57h60v4h-60z"/><path d="m14 57h20v4h-20z"/><path d="m94 57h20v4h-20z"/><path d="m30 57h4v24h-4z"/><path d="m25 41h3v16h-3z"/><path d="m105 11h3v7h-3z"/><path d="m25 11h3v7h-3z"/><path d="m26 17.9h3v6.1h-3z"/><path d="m106 17.9h3v6.1h-3z"/><path d="m28 47.9h72v4h-72z"/><path d="m28 33h4v8h-4z"/><path d="m108 33h4v8h-4z"/></g><path d="m16 33h4v8h-4z" fill="#fdd2af"/><path d="m96 33h4v8h-4z" fill="#fdd2af"/><g fill="#594454"><path d="m127 128h-126c-.6 0-1-.4-1-1s.4-1 1-1h126c.6 0 1 .4 1 1s-.4 1-1 1z"/><path d="m80 128c-.6 0-1-.4-1-1v-20.9c0-6-3.5-11.6-9.4-14.9l-5.6-3.1-5.7 3.2c-5.8 3.3-9.3 8.8-9.3 14.8v20.7c0 .6-.4 1-1 1s-1-.4-1-1v-20.7c0-6.7 3.9-12.9 10.3-16.6l6.2-3.5c.3-.2.7-.2 1 0l6.1 3.4c6.5 3.6 10.4 9.8 10.4 16.6v21c0 .6-.5 1-1 1z"/><path d="m46 83c-.6 0-1-.4-1-1v-11c0-3-2.1-4.5-2.9-4.9-.9.5-3.1 1.9-3.1 4.9v11c0 .6-.4 1-1 1s-1-.4-1-1v-11c0-5.1 4.6-6.9 4.8-6.9.2-.1.5-.1.7 0s4.5 1.8 4.5 6.9v11c0 .6-.5 1-1 1z"/><path d="m58 83c-.6 0-1-.4-1-1v-11c0-3-2.1-4.5-2.9-4.9-.9.5-3.1 1.9-3.1 4.9v11c0 .6-.4 1-1 1s-1-.4-1-1v-11c0-5.1 4.6-6.9 4.8-6.9.2-.1.5-.1.7 0s4.5 1.8 4.5 6.9v11c0 .6-.5 1-1 1z"/><path d="m86 128h-44c-.6 0-1-.4-1-1v-46c0-.6.4-1 1-1h44c.6 0 1 .4 1 1v46c0 .6-.5 1-1 1zm-43-2h42v-44h-42z"/><path d="m42 128h-12c-.6 0-1-.4-1-1v-46c0-.6.4-1 1-1h12c.6 0 1 .4 1 1v46c0 .6-.5 1-1 1zm-11-2h10v-44h-10z"/><path d="m30 128h-12c-.6 0-1-.4-1-1v-46c0-.6.4-1 1-1h12c.6 0 1 .4 1 1v46c0 .6-.5 1-1 1zm-11-2h10v-44h-10z"/><path d="m28 58h-8c-.6 0-1-.4-1-1v-16c0-.6.4-1 1-1h8c.6 0 1 .4 1 1v16c0 .6-.5 1-1 1zm-7-2h6v-14h-6z"/><path d="m28 34h-8c-.6 0-1-.4-1-1v-9c0-.6.4-1 1-1h8c.6 0 1 .4 1 1v9c0 .6-.5 1-1 1zm-7-2h6v-7h-6z"/><path d="m108 58h-8c-.6 0-1-.4-1-1v-16c0-.6.4-1 1-1h8c.6 0 1 .4 1 1v16c0 .6-.5 1-1 1zm-7-2h6v-14h-6z"/><path d="m34 82h-20c-.6 0-1-.4-1-1v-24c0-.6.4-1 1-1h20c.6 0 1 .4 1 1v24c0 .6-.5 1-1 1zm-19-2h18v-22h-18z"/><path d="m32 42h-16c-.6 0-1-.4-1-1v-8c0-.6.4-1 1-1h16c.6 0 1 .4 1 1v8c0 .6-.5 1-1 1zm-15-2h14v-6h-14z"/><path d="m30 25h-12c-.6 0-1-.4-1-1v-6c0-.6.4-1 1-1h12c.6 0 1 .4 1 1v6c0 .6-.5 1-1 1zm-11-2h10v-4h-10z"/><path d="m94 82h-60c-.6 0-1-.4-1-1v-24c0-.6.4-1 1-1h60c.6 0 1 .4 1 1v24c0 .6-.5 1-1 1zm-59-2h58v-22h-58z"/><path d="m100 58h-72c-.6 0-1-.4-1-1v-8.1c0-.6.4-1 1-1h72c.6 0 1 .4 1 1v8.1c0 .6-.5 1-1 1zm-71-2h70v-6.1h-70z"/><path d="m100 49.9h-72c-.6 0-1-.4-1-1v-4c0-.6.4-1 1-1h72c.6 0 1 .4 1 1v4c0 .6-.5 1-1 1zm-71-2h70v-2h-70z"/><path d="m38 94h-4c-.6 0-1-.4-1-1v-4c0-1.7 1.3-3 3-3s3 1.3 3 3v4c0 .6-.5 1-1 1zm-3-2h2v-3c0-.6-.4-1-1-1s-1 .4-1 1z"/><path d="m38 104h-4c-.6 0-1-.4-1-1v-4c0-1.7 1.3-3 3-3s3 1.3 3 3v4c0 .6-.5 1-1 1zm-3-2h2v-3c0-.6-.4-1-1-1s-1 .4-1 1z"/><path d="m38 114h-4c-.6 0-1-.4-1-1v-4c0-1.7 1.3-3 3-3s3 1.3 3 3v4c0 .6-.5 1-1 1zm-3-2h2v-3c0-.6-.4-1-1-1s-1 .4-1 1z"/><path d="m38 124h-4c-.6 0-1-.4-1-1v-4c0-1.7 1.3-3 3-3s3 1.3 3 3v4c0 .6-.5 1-1 1zm-3-2h2v-3c0-.6-.4-1-1-1s-1 .4-1 1z"/><path d="m94 104h-4c-.6 0-1-.4-1-1v-4c0-1.7 1.3-3 3-3s3 1.3 3 3v4c0 .6-.5 1-1 1zm-3-2h2v-3c0-.6-.4-1-1-1s-1 .4-1 1z"/><path d="m94 124h-4c-.6 0-1-.4-1-1v-4c0-1.7 1.3-3 3-3s3 1.3 3 3v4c0 .6-.5 1-1 1zm-3-2h2v-3c0-.6-.4-1-1-1s-1 .4-1 1z"/><path d="m38 94h-4c-.6 0-1-.4-1-1v-4c0-1.7 1.3-3 3-3s3 1.3 3 3v4c0 .6-.5 1-1 1zm-3-2h2v-3c0-.6-.4-1-1-1s-1 .4-1 1z"/><path d="m38 104h-4c-.6 0-1-.4-1-1v-4c0-1.7 1.3-3 3-3s3 1.3 3 3v4c0 .6-.5 1-1 1zm-3-2h2v-3c0-.6-.4-1-1-1s-1 .4-1 1z"/><path d="m38 114h-4c-.6 0-1-.4-1-1v-4c0-1.7 1.3-3 3-3s3 1.3 3 3v4c0 .6-.5 1-1 1zm-3-2h2v-3c0-.6-.4-1-1-1s-1 .4-1 1z"/><path d="m38 124h-4c-.6 0-1-.4-1-1v-4c0-1.7 1.3-3 3-3s3 1.3 3 3v4c0 .6-.5 1-1 1zm-3-2h2v-3c0-.6-.4-1-1-1s-1 .4-1 1z"/><path d="m94 104h-4c-.6 0-1-.4-1-1v-4c0-1.7 1.3-3 3-3s3 1.3 3 3v4c0 .6-.5 1-1 1zm-3-2h2v-3c0-.6-.4-1-1-1s-1 .4-1 1z"/><path d="m94 124h-4c-.6 0-1-.4-1-1v-4c0-1.7 1.3-3 3-3s3 1.3 3 3v4c0 .6-.5 1-1 1zm-3-2h2v-3c0-.6-.4-1-1-1s-1 .4-1 1z"/></g><g fill="#726571"><path d="m28 71c-1.1 0-2 .9-2 2v2c0-1.1.9-2 2-2s2 .9 2 2v-2c0-1.1-.9-2-2-2z"/><path d="m100 71c-1.1 0-2 .9-2 2v2c0-1.1.9-2 2-2s2 .9 2 2v-2c0-1.1-.9-2-2-2z"/><path d="m100 61c-1.1 0-2 .9-2 2v2c0-1.1.9-2 2-2s2 .9 2 2v-2c0-1.1-.9-2-2-2z"/><path d="m108 71c-1.1 0-2 .9-2 2v2c0-1.1.9-2 2-2s2 .9 2 2v-2c0-1.1-.9-2-2-2z"/><path d="m108 61c-1.1 0-2 .9-2 2v2c0-1.1.9-2 2-2s2 .9 2 2v-2c0-1.1-.9-2-2-2z"/><path d="m20 71c-1.1 0-2 .9-2 2v2c0-1.1.9-2 2-2s2 .9 2 2v-2c0-1.1-.9-2-2-2z"/><path d="m20 61c-1.1 0-2 .9-2 2v2c0-1.1.9-2 2-2s2 .9 2 2v-2c0-1.1-.9-2-2-2z"/><path d="m28 61c-1.1 0-2 .9-2 2v2c0-1.1.9-2 2-2s2 .9 2 2v-2c0-1.1-.9-2-2-2z"/></g><g fill="#594454"><path d="m38 94h-4c-.6 0-1-.4-1-1v-4c0-1.7 1.3-3 3-3s3 1.3 3 3v4c0 .6-.5 1-1 1zm-3-2h2v-3c0-.6-.4-1-1-1s-1 .4-1 1z"/><path d="m38 104h-4c-.6 0-1-.4-1-1v-4c0-1.7 1.3-3 3-3s3 1.3 3 3v4c0 .6-.5 1-1 1zm-3-2h2v-3c0-.6-.4-1-1-1s-1 .4-1 1z"/><path d="m22 78h-4c-.6 0-1-.4-1-1v-4c0-1.7 1.3-3 3-3s3 1.3 3 3v4c0 .6-.5 1-1 1zm-3-2h2v-3c0-.6-.4-1-1-1s-1 .4-1 1z"/><path d="m22 68h-4c-.6 0-1-.4-1-1v-4c0-1.7 1.3-3 3-3s3 1.3 3 3v4c0 .6-.5 1-1 1zm-3-2h2v-3c0-.6-.4-1-1-1s-1 .4-1 1z"/><path d="m30 78h-4c-.6 0-1-.4-1-1v-4c0-1.7 1.3-3 3-3s3 1.3 3 3v4c0 .6-.5 1-1 1zm-3-2h2v-3c0-.6-.4-1-1-1s-1 .4-1 1z"/><path d="m30 68h-4c-.6 0-1-.4-1-1v-4c0-1.7 1.3-3 3-3s3 1.3 3 3v4c0 .6-.5 1-1 1zm-3-2h2v-3c0-.6-.4-1-1-1s-1 .4-1 1z"/><path d="m102 78h-4c-.6 0-1-.4-1-1v-4c0-1.7 1.3-3 3-3s3 1.3 3 3v4c0 .6-.5 1-1 1zm-3-2h2v-3c0-.6-.4-1-1-1s-1 .4-1 1z"/><path d="m102 68h-4c-.6 0-1-.4-1-1v-4c0-1.7 1.3-3 3-3s3 1.3 3 3v4c0 .6-.5 1-1 1zm-3-2h2v-3c0-.6-.4-1-1-1s-1 .4-1 1z"/><path d="m110 78h-4c-.6 0-1-.4-1-1v-4c0-1.7 1.3-3 3-3s3 1.3 3 3v4c0 .6-.5 1-1 1zm-3-2h2v-3c0-.6-.4-1-1-1s-1 .4-1 1z"/><path d="m110 68h-4c-.6 0-1-.4-1-1v-4c0-1.7 1.3-3 3-3s3 1.3 3 3v4c0 .6-.5 1-1 1zm-3-2h2v-3c0-.6-.4-1-1-1s-1 .4-1 1z"/><path d="m38 58h-4c-.6 0-1-.4-1-1v-2c0-1.7 1.3-3 3-3s3 1.3 3 3v2c0 .6-.5 1-1 1zm-3-2h2v-1c0-.6-.4-1-1-1s-1 .4-1 1z"/><path d="m46 58h-4c-.6 0-1-.4-1-1v-2c0-1.7 1.3-3 3-3s3 1.3 3 3v2c0 .6-.5 1-1 1zm-3-2h2v-1c0-.6-.4-1-1-1s-1 .4-1 1z"/><path d="m54 58h-4c-.6 0-1-.4-1-1v-2c0-1.7 1.3-3 3-3s3 1.3 3 3v2c0 .6-.5 1-1 1zm-3-2h2v-1c0-.6-.4-1-1-1s-1 .4-1 1z"/><path d="m62 58h-4c-.6 0-1-.4-1-1v-2c0-1.7 1.3-3 3-3s3 1.3 3 3v2c0 .6-.5 1-1 1zm-3-2h2v-1c0-.6-.4-1-1-1s-1 .4-1 1z"/><path d="m70 58h-4c-.6 0-1-.4-1-1v-2c0-1.7 1.3-3 3-3s3 1.3 3 3v2c0 .6-.5 1-1 1zm-3-2h2v-1c0-.6-.4-1-1-1s-1 .4-1 1z"/><path d="m78 58h-4c-.6 0-1-.4-1-1v-2c0-1.7 1.3-3 3-3s3 1.3 3 3v2c0 .6-.5 1-1 1zm-3-2h2v-1c0-.6-.4-1-1-1s-1 .4-1 1z"/><path d="m86 58h-4c-.6 0-1-.4-1-1v-2c0-1.7 1.3-3 3-3s3 1.3 3 3v2c0 .6-.5 1-1 1zm-3-2h2v-1c0-.6-.4-1-1-1s-1 .4-1 1z"/><path d="m94 58h-4c-.6 0-1-.4-1-1v-2c0-1.7 1.3-3 3-3s3 1.3 3 3v2c0 .6-.5 1-1 1zm-3-2h2v-1c0-.6-.4-1-1-1s-1 .4-1 1z"/><path d="m24 40c-.6 0-1-.4-1-1v-2c0-.6.4-1 1-1s1 .4 1 1v2c0 .6-.5 1-1 1z"/><path d="m20 41c-.6 0-1-.4-1-1v-3c0-.6.4-1 1-1s1 .4 1 1v3c0 .6-.5 1-1 1z"/><path d="m28 41c-.6 0-1-.4-1-1v-3c0-.6.4-1 1-1s1 .4 1 1v3c0 .6-.5 1-1 1z"/><path d="m24 41c-.6 0-1-.4-1-1v-3c0-.6.4-1 1-1s1 .4 1 1v3c0 .6-.5 1-1 1z"/><path d="m112 42h-16c-.6 0-1-.4-1-1v-8c0-.6.4-1 1-1h16c.6 0 1 .4 1 1v8c0 .6-.5 1-1 1zm-15-2h14v-6h-14z"/><path d="m104 41c-.6 0-1-.4-1-1v-3c0-.6.4-1 1-1s1 .4 1 1v3c0 .6-.5 1-1 1z"/><path d="m100 41c-.6 0-1-.4-1-1v-3c0-.6.4-1 1-1s1 .4 1 1v3c0 .6-.5 1-1 1z"/><path d="m108 41c-.6 0-1-.4-1-1v-3c0-.6.4-1 1-1s1 .4 1 1v3c0 .6-.5 1-1 1z"/><path d="m114 82h-20c-.6 0-1-.4-1-1v-24c0-.6.4-1 1-1h20c.6 0 1 .4 1 1v24c0 .6-.5 1-1 1zm-19-2h18v-22h-18z"/><path d="m98 128h-12c-.6 0-1-.4-1-1v-46c0-.6.4-1 1-1h12c.6 0 1 .4 1 1v46c0 .6-.5 1-1 1zm-11-2h10v-44h-10z"/><path d="m110 128h-12c-.6 0-1-.4-1-1v-46c0-.6.4-1 1-1h12c.6 0 1 .4 1 1v46c0 .6-.5 1-1 1zm-11-2h10v-44h-10z"/><path d="m48 92c-1.7 0-3-1.3-3-3s1.3-3 3-3 3 1.3 3 3-1.4 3-3 3zm0-4c-.6 0-1 .4-1 1s.4 1 1 1 1-.4 1-1-.5-1-1-1z"/><path d="m80 92c-1.7 0-3-1.3-3-3s1.3-3 3-3 3 1.3 3 3-1.4 3-3 3zm0-4c-.6 0-1 .4-1 1s.4 1 1 1 1-.4 1-1-.5-1-1-1z"/><path d="m64 72c-1.7 0-3-1.3-3-3s1.3-3 3-3 3 1.3 3 3-1.4 3-3 3zm0-4c-.6 0-1 .4-1 1s.4 1 1 1 1-.4 1-1-.5-1-1-1z"/><path d="m46 84c-.6 0-1-.4-1-1v-2c0-.6.4-1 1-1s1 .4 1 1v2c0 .6-.5 1-1 1z"/><path d="m50 84c-.6 0-1-.4-1-1v-2c0-.6.4-1 1-1s1 .4 1 1v2c0 .6-.5 1-1 1z"/><path d="m34 84c-.6 0-1-.4-1-1v-2c0-.6.4-1 1-1s1 .4 1 1v2c0 .6-.5 1-1 1z"/><path d="m38 84c-.6 0-1-.4-1-1v-2c0-.6.4-1 1-1s1 .4 1 1v2c0 .6-.5 1-1 1z"/><path d="m46 60c-.6 0-1-.4-1-1v-2c0-.6.4-1 1-1s1 .4 1 1v2c0 .6-.5 1-1 1z"/><path d="m42 60c-.6 0-1-.4-1-1v-2c0-.6.4-1 1-1s1 .4 1 1v2c0 .6-.5 1-1 1z"/><path d="m50 60c-.6 0-1-.4-1-1v-2c0-.6.4-1 1-1s1 .4 1 1v2c0 .6-.5 1-1 1z"/><path d="m38 60c-.6 0-1-.4-1-1v-2c0-.6.4-1 1-1s1 .4 1 1v2c0 .6-.5 1-1 1z"/><path d="m62 60c-.6 0-1-.4-1-1v-2c0-.6.4-1 1-1s1 .4 1 1v2c0 .6-.5 1-1 1z"/><path d="m58 60c-.6 0-1-.4-1-1v-2c0-.6.4-1 1-1s1 .4 1 1v2c0 .6-.5 1-1 1z"/><path d="m66 60c-.6 0-1-.4-1-1v-2c0-.6.4-1 1-1s1 .4 1 1v2c0 .6-.5 1-1 1z"/><path d="m54 60c-.6 0-1-.4-1-1v-2c0-.6.4-1 1-1s1 .4 1 1v2c0 .6-.5 1-1 1z"/><path d="m78 60c-.6 0-1-.4-1-1v-2c0-.6.4-1 1-1s1 .4 1 1v2c0 .6-.5 1-1 1z"/><path d="m74 60c-.6 0-1-.4-1-1v-2c0-.6.4-1 1-1s1 .4 1 1v2c0 .6-.5 1-1 1z"/><path d="m82 60c-.6 0-1-.4-1-1v-2c0-.6.4-1 1-1s1 .4 1 1v2c0 .6-.5 1-1 1z"/><path d="m70 60c-.6 0-1-.4-1-1v-2c0-.6.4-1 1-1s1 .4 1 1v2c0 .6-.5 1-1 1z"/><path d="m90 60c-.6 0-1-.4-1-1v-2c0-.6.4-1 1-1s1 .4 1 1v2c0 .6-.5 1-1 1z"/><path d="m86 60c-.6 0-1-.4-1-1v-2c0-.6.4-1 1-1s1 .4 1 1v2c0 .6-.5 1-1 1z"/><path d="m54 84c-.6 0-1-.4-1-1v-2c0-.6.4-1 1-1s1 .4 1 1v2c0 .6-.5 1-1 1z"/><path d="m58 84c-.6 0-1-.4-1-1v-2c0-.6.4-1 1-1s1 .4 1 1v2c0 .6-.5 1-1 1z"/><path d="m62 84c-.6 0-1-.4-1-1v-2c0-.6.4-1 1-1s1 .4 1 1v2c0 .6-.5 1-1 1z"/><path d="m66 84c-.6 0-1-.4-1-1v-2c0-.6.4-1 1-1s1 .4 1 1v2c0 .6-.5 1-1 1z"/><path d="m70 84c-.6 0-1-.4-1-1v-2c0-.6.4-1 1-1s1 .4 1 1v2c0 .6-.5 1-1 1z"/><path d="m74 84c-.6 0-1-.4-1-1v-2c0-.6.4-1 1-1s1 .4 1 1v2c0 .6-.5 1-1 1z"/><path d="m78 84c-.6 0-1-.4-1-1v-2c0-.6.4-1 1-1s1 .4 1 1v2c0 .6-.5 1-1 1z"/><path d="m82 84c-.6 0-1-.4-1-1v-2c0-.6.4-1 1-1s1 .4 1 1v2c0 .6-.5 1-1 1z"/><path d="m90 84c-.6 0-1-.4-1-1v-2c0-.6.4-1 1-1s1 .4 1 1v2c0 .6-.5 1-1 1z"/><path d="m94 84c-.6 0-1-.4-1-1v-2c0-.6.4-1 1-1s1 .4 1 1v2c0 .6-.5 1-1 1z"/><path d="m28 18.6c-.6 0-1-.4-1-1v-7.3c0-1.5-.8-2.9-2-3.7l-1-.6-1 .7c-1.2.8-2 2.2-2 3.6v7.3c0 .6-.4 1-1 1s-1-.4-1-1v-7.3c0-2.2 1.1-4.2 2.9-5.3l1.6-1c.3-.2.7-.2 1.1 0l1.4 1c1.8 1.2 2.9 3.2 2.9 5.3v7.3c.1.6-.4 1-.9 1z"/><path d="m24 6c-.6 0-1-.4-1-1v-4c0-.6.4-1 1-1s1 .4 1 1v4c0 .6-.5 1-1 1z"/><path d="m24 18c-.6 0-1-.4-1-1v-2c0-.6.4-1 1-1s1 .4 1 1v2c0 .6-.5 1-1 1z"/><path d="m22 24c-.6 0-1-.4-1-1v-1c0-.6.4-1 1-1s1 .4 1 1v1c0 .6-.5 1-1 1z"/><path d="m26 24c-.6 0-1-.4-1-1v-1c0-.6.4-1 1-1s1 .4 1 1v1c0 .6-.5 1-1 1z"/><path d="m28 12h-7c-.6 0-1-.4-1-1s.4-1 1-1h7c.6 0 1 .4 1 1s-.5 1-1 1z"/><path d="m108 34h-8c-.6 0-1-.4-1-1v-9c0-.6.4-1 1-1h8c.6 0 1 .4 1 1v9c0 .6-.5 1-1 1zm-7-2h6v-7h-6z"/><path d="m110 25h-12c-.6 0-1-.4-1-1v-6c0-.6.4-1 1-1h12c.6 0 1 .4 1 1v6c0 .6-.5 1-1 1zm-11-2h10v-4h-10z"/><path d="m108 18.6c-.6 0-1-.4-1-1v-7.3c0-1.5-.8-2.9-2-3.7l-1-.6-1 .7c-1.2.8-2 2.2-2 3.6v7.3c0 .6-.4 1-1 1s-1-.4-1-1v-7.3c0-2.2 1.1-4.2 2.9-5.3l1.6-1c.3-.2.7-.2 1.1 0l1.5 1c1.8 1.2 2.9 3.2 2.9 5.3v7.3c0 .6-.5 1-1 1z"/><path d="m104 6c-.6 0-1-.4-1-1v-4c0-.6.4-1 1-1s1 .4 1 1v4c0 .6-.5 1-1 1z"/><path d="m104 18c-.6 0-1-.4-1-1v-2c0-.6.4-1 1-1s1 .4 1 1v2c0 .6-.5 1-1 1z"/><path d="m102 24c-.6 0-1-.4-1-1v-1c0-.6.4-1 1-1s1 .4 1 1v1c0 .6-.5 1-1 1z"/><path d="m106 24c-.6 0-1-.4-1-1v-1c0-.6.4-1 1-1s1 .4 1 1v1c0 .6-.5 1-1 1z"/><path d="m108 12h-7c-.6 0-1-.4-1-1s.4-1 1-1h7c.6 0 1 .4 1 1s-.5 1-1 1z"/></g><path d="m74.1 65s-4.1 1.5-4.1 6v4c0-4.5 4.1-6 4.1-6s3.9 1.5 3.9 6c0-1.5 0-2.9 0-4 0-4.5-3.9-6-3.9-6z" fill="#726571"/><path d="m86.1 65s-4.1 1.5-4.1 6v4c0-4.5 4.1-6 4.1-6s3.9 1.5 3.9 6c0-1.5 0-2.9 0-4 0-4.5-3.9-6-3.9-6z" fill="#726571"/><path d="m78 83c-.6 0-1-.4-1-1v-11c0-3-2.1-4.5-2.9-4.9-.9.5-3.1 1.9-3.1 4.9v11c0 .6-.4 1-1 1s-1-.4-1-1v-11c0-5.1 4.6-6.9 4.8-6.9.2-.1.5-.1.7 0s4.5 1.8 4.5 6.9v11c0 .6-.5 1-1 1z" fill="#594454"/><path d="m90 83c-.6 0-1-.4-1-1v-11c0-3-2.1-4.5-2.9-4.9-.9.5-3.1 1.9-3.1 4.9v11c0 .6-.4 1-1 1s-1-.4-1-1v-11c0-5.1 4.6-6.9 4.8-6.9.2-.1.5-.1.7 0s4.5 1.8 4.5 6.9v11c0 .6-.5 1-1 1z" fill="#594454"/><path d="m36 107c-1.1 0-2 .9-2 2v3c0-1.1.9-2 2-2s2 .9 2 2v-3c0-1.1-.9-2-2-2z" fill="#726571"/><path d="m36 117c-1.1 0-2 .9-2 2v3c0-1.1.9-2 2-2s2 .9 2 2v-3c0-1.1-.9-2-2-2z" fill="#726571"/><path d="m92 87c-1.1 0-2 .9-2 2v3c0-1.1.9-2 2-2s2 .9 2 2v-3c0-1.1-.9-2-2-2z" fill="#726571"/><path d="m92 97c-1.1 0-2 .9-2 2v3c0-1.1.9-2 2-2s2 .9 2 2v-3c0-1.1-.9-2-2-2z" fill="#726571"/><path d="m92 107c-1.1 0-2 .9-2 2v3c0-1.1.9-2 2-2s2 .9 2 2v-3c0-1.1-.9-2-2-2z" fill="#726571"/><path d="m92 117c-1.1 0-2 .9-2 2v3c0-1.1.9-2 2-2s2 .9 2 2v-3c0-1.1-.9-2-2-2z" fill="#726571"/><path d="m38 114h-4c-.6 0-1-.4-1-1v-4c0-1.7 1.3-3 3-3s3 1.3 3 3v4c0 .6-.5 1-1 1zm-3-2h2v-3c0-.6-.4-1-1-1s-1 .4-1 1z" fill="#594454"/><path d="m38 124h-4c-.6 0-1-.4-1-1v-4c0-1.7 1.3-3 3-3s3 1.3 3 3v4c0 .6-.5 1-1 1zm-3-2h2v-3c0-.6-.4-1-1-1s-1 .4-1 1z" fill="#594454"/><path d="m94 94h-4c-.6 0-1-.4-1-1v-4c0-1.7 1.3-3 3-3s3 1.3 3 3v4c0 .6-.5 1-1 1zm-3-2h2v-3c0-.6-.4-1-1-1s-1 .4-1 1z" fill="#594454"/><path d="m94 104h-4c-.6 0-1-.4-1-1v-4c0-1.7 1.3-3 3-3s3 1.3 3 3v4c0 .6-.5 1-1 1zm-3-2h2v-3c0-.6-.4-1-1-1s-1 .4-1 1z" fill="#594454"/><path d="m94 124h-4c-.6 0-1-.4-1-1v-4c0-1.7 1.3-3 3-3s3 1.3 3 3v4c0 .6-.5 1-1 1zm-3-2h2v-3c0-.6-.4-1-1-1s-1 .4-1 1z" fill="#594454"/><path d="m94 114h-4c-.6 0-1-.4-1-1v-4c0-1.7 1.3-3 3-3s3 1.3 3 3v4c0 .6-.5 1-1 1zm-3-2h2v-3c0-.6-.4-1-1-1s-1 .4-1 1z" fill="#594454"/></svg>